<mxfile host="app.diagrams.net" modified="2023-09-11T06:18:51.398Z" agent="Mozilla/5.0 (Windows NT 10.0; Win64; x64) AppleWebKit/537.36 (KHTML, like Gecko) Chrome/116.0.0.0 Safari/537.36" etag="WampM8Cn8rn6XH-jU4AV" version="21.7.4" type="github">
  <diagram name="Page-1" id="GWWWe-5cyt6rrgPRww_g">
    <mxGraphModel dx="1434" dy="782" grid="1" gridSize="10" guides="1" tooltips="1" connect="1" arrows="1" fold="1" page="1" pageScale="1" pageWidth="850" pageHeight="1100" math="0" shadow="0">
      <root>
        <mxCell id="0" />
        <mxCell id="1" parent="0" />
        <mxCell id="6ucR_Ql-FkkswbTmsDIF-6" value="game tebak angka" style="rounded=0;whiteSpace=wrap;html=1;verticalAlign=top;" vertex="1" parent="1">
          <mxGeometry x="310" y="240" width="160" height="280" as="geometry" />
        </mxCell>
        <mxCell id="6ucR_Ql-FkkswbTmsDIF-7" value="user" style="shape=umlActor;verticalLabelPosition=bottom;verticalAlign=top;html=1;outlineConnect=0;" vertex="1" parent="1">
          <mxGeometry x="570" y="280" width="90" height="220" as="geometry" />
        </mxCell>
        <mxCell id="6ucR_Ql-FkkswbTmsDIF-8" value="computer" style="shape=umlActor;verticalLabelPosition=bottom;verticalAlign=top;html=1;outlineConnect=0;" vertex="1" parent="1">
          <mxGeometry x="120" y="280" width="90" height="220" as="geometry" />
        </mxCell>
        <mxCell id="6ucR_Ql-FkkswbTmsDIF-9" value="random angka" style="ellipse;whiteSpace=wrap;html=1;" vertex="1" parent="1">
          <mxGeometry x="345" y="310" width="90" height="60" as="geometry" />
        </mxCell>
        <mxCell id="6ucR_Ql-FkkswbTmsDIF-10" value="tebak angka" style="ellipse;whiteSpace=wrap;html=1;" vertex="1" parent="1">
          <mxGeometry x="345" y="410" width="90" height="60" as="geometry" />
        </mxCell>
        <mxCell id="6ucR_Ql-FkkswbTmsDIF-11" value="" style="endArrow=none;html=1;rounded=0;" edge="1" parent="1" target="6ucR_Ql-FkkswbTmsDIF-9">
          <mxGeometry width="50" height="50" relative="1" as="geometry">
            <mxPoint x="200" y="390" as="sourcePoint" />
            <mxPoint x="250" y="355" as="targetPoint" />
            <Array as="points">
              <mxPoint x="220" y="385" />
            </Array>
          </mxGeometry>
        </mxCell>
        <mxCell id="6ucR_Ql-FkkswbTmsDIF-13" value="" style="endArrow=none;html=1;rounded=0;exitX=0.967;exitY=0.35;exitDx=0;exitDy=0;exitPerimeter=0;" edge="1" parent="1" source="6ucR_Ql-FkkswbTmsDIF-10">
          <mxGeometry width="50" height="50" relative="1" as="geometry">
            <mxPoint x="450.00000000000006" y="429.98" as="sourcePoint" />
            <mxPoint x="580.04" y="370" as="targetPoint" />
          </mxGeometry>
        </mxCell>
      </root>
    </mxGraphModel>
  </diagram>
</mxfile>
